<svg width="271" height="105" viewBox="0 0 271 105" fill="none" xmlns="http://www.w3.org/2000/svg">
<rect width="270.154" height="104.589" rx="52.2947" fill="white"/>
<ellipse cx="51.8509" cy="51.3511" rx="34.0355" ry="34.3269" fill="#9F3FFF"/>
<rect x="31.4844" y="48.2631" width="17.2228" height="6.53938" rx="3.26969" fill="white"/>
<rect x="54.9946" y="47.8998" width="17.2228" height="6.53938" rx="3.26969" fill="white"/>
<path d="M76.2506 84.6197C76.63 86.4627 74.889 88.0289 73.1167 87.4388L58.6102 82.6089C56.8379 82.0188 56.3636 79.715 57.7565 78.4621L69.157 68.2065C70.5499 66.9536 72.7652 67.6912 73.1447 69.5342L76.2506 84.6197Z" fill="#9F3FFF"/>
<path d="M114.427 35.6799H121.018L130.722 63.417L140.426 35.6799H147.016L133.368 73.4584H128.075L114.427 35.6799ZM110.873 35.6799H117.437L118.631 62.7165V73.4584H110.873V35.6799ZM144.007 35.6799H150.597V73.4584H142.813V62.7165L144.007 35.6799Z" fill="black"/>
<path d="M155.76 59.7066V59.1618C155.76 57.1033 156.055 55.2092 156.643 53.4794C157.231 51.7323 158.087 50.2188 159.211 48.9387C160.336 47.6587 161.72 46.6641 163.363 45.9549C165.006 45.2283 166.892 44.8651 169.019 44.8651C171.147 44.8651 173.041 45.2283 174.702 45.9549C176.362 46.6641 177.755 47.6587 178.879 48.9387C180.021 50.2188 180.886 51.7323 181.474 53.4794C182.062 55.2092 182.356 57.1033 182.356 59.1618V59.7066C182.356 61.7478 182.062 63.6419 181.474 65.389C180.886 67.1188 180.021 68.6323 178.879 69.9297C177.755 71.2097 176.371 72.2043 174.728 72.9135C173.084 73.6228 171.199 73.9774 169.071 73.9774C166.944 73.9774 165.049 73.6228 163.389 72.9135C161.746 72.2043 160.353 71.2097 159.211 69.9297C158.087 68.6323 157.231 67.1188 156.643 65.389C156.055 63.6419 155.76 61.7478 155.76 59.7066ZM163.233 59.1618V59.7066C163.233 60.8829 163.337 61.9813 163.545 63.0019C163.752 64.0224 164.081 64.9219 164.53 65.7003C164.998 66.4614 165.603 67.0582 166.347 67.4907C167.091 67.9231 167.999 68.1393 169.071 68.1393C170.109 68.1393 171 67.9231 171.744 67.4907C172.487 67.0582 173.084 66.4614 173.534 65.7003C173.984 64.9219 174.312 64.0224 174.52 63.0019C174.745 61.9813 174.857 60.8829 174.857 59.7066V59.1618C174.857 58.0201 174.745 56.9476 174.52 55.9444C174.312 54.9238 173.975 54.0243 173.508 53.2459C173.058 52.4502 172.462 51.8275 171.718 51.3777C170.974 50.928 170.074 50.7031 169.019 50.7031C167.964 50.7031 167.065 50.928 166.321 51.3777C165.594 51.8275 164.998 52.4502 164.53 53.2459C164.081 54.0243 163.752 54.9238 163.545 55.9444C163.337 56.9476 163.233 58.0201 163.233 59.1618Z" fill="black"/>
<path d="M194.421 51.5075V73.4584H186.948V45.384H193.98L194.421 51.5075ZM202.88 45.2024L202.75 52.1302C202.387 52.0783 201.946 52.035 201.427 52.0004C200.925 51.9486 200.467 51.9226 200.052 51.9226C198.996 51.9226 198.08 52.061 197.301 52.3378C196.54 52.5972 195.9 52.9864 195.381 53.5054C194.88 54.0243 194.499 54.6557 194.24 55.3995C193.997 56.1433 193.859 56.9909 193.824 57.9423L192.319 57.4752C192.319 55.6589 192.501 53.9897 192.864 52.4675C193.228 50.928 193.755 49.5874 194.447 48.4457C195.156 47.3041 196.021 46.4219 197.042 45.7992C198.062 45.1764 199.23 44.8651 200.545 44.8651C200.96 44.8651 201.384 44.8997 201.816 44.9689C202.248 45.0208 202.603 45.0986 202.88 45.2024Z" fill="black"/>
<path d="M221.587 65.7003C221.587 65.1641 221.432 64.6798 221.12 64.2473C220.809 63.8149 220.23 63.417 219.382 63.0538C218.552 62.6732 217.349 62.3273 215.775 62.0159C214.357 61.7045 213.034 61.3153 211.805 60.8483C210.595 60.364 209.539 59.7845 208.64 59.1099C207.758 58.4352 207.066 57.6395 206.564 56.7228C206.063 55.7887 205.812 54.7249 205.812 53.5313C205.812 52.3551 206.063 51.248 206.564 50.2101C207.083 49.1722 207.818 48.2555 208.77 47.4598C209.738 46.6468 210.915 46.0154 212.298 45.5656C213.7 45.0986 215.274 44.8651 217.021 44.8651C219.46 44.8651 221.553 45.2543 223.3 46.0327C225.064 46.8111 226.414 47.8836 227.348 49.2501C228.299 50.5993 228.775 52.1388 228.775 53.8686H221.302C221.302 53.1421 221.146 52.4934 220.835 51.9226C220.541 51.3345 220.074 50.8761 219.434 50.5474C218.811 50.2015 217.998 50.0285 216.995 50.0285C216.165 50.0285 215.447 50.1755 214.841 50.4696C214.236 50.7464 213.769 51.1269 213.44 51.6112C213.129 52.0783 212.973 52.5972 212.973 53.1681C212.973 53.6005 213.06 53.9897 213.233 54.3357C213.423 54.6643 213.726 54.967 214.141 55.2438C214.556 55.5206 215.092 55.78 215.749 56.0222C216.424 56.2471 217.254 56.4546 218.24 56.6449C220.264 57.0601 222.072 57.6049 223.663 58.2796C225.255 58.9369 226.517 59.8364 227.451 60.978C228.385 62.1024 228.853 63.5814 228.853 65.4149C228.853 66.6604 228.576 67.802 228.022 68.8399C227.469 69.8778 226.673 70.7859 225.635 71.5643C224.597 72.3254 223.352 72.9222 221.899 73.3546C220.463 73.7698 218.846 73.9774 217.047 73.9774C214.435 73.9774 212.221 73.5103 210.404 72.5762C208.605 71.6421 207.239 70.4572 206.305 69.0215C205.388 67.5685 204.93 66.0809 204.93 64.5587H212.013C212.048 65.5793 212.307 66.4009 212.791 67.0236C213.293 67.6463 213.924 68.0961 214.686 68.3729C215.464 68.6496 216.303 68.788 217.202 68.788C218.171 68.788 218.975 68.6583 219.615 68.3988C220.256 68.122 220.74 67.7588 221.068 67.309C221.414 66.842 221.587 66.3058 221.587 65.7003Z" fill="black"/>
<path d="M242.033 70.2929L249.48 45.384H257.498L246.211 77.6877C245.969 78.397 245.64 79.1581 245.225 79.9711C244.827 80.7841 244.282 81.5538 243.59 82.2803C242.916 83.0241 242.059 83.6296 241.022 84.0966C240.001 84.5636 238.747 84.7972 237.259 84.7972C236.55 84.7972 235.971 84.7539 235.521 84.6674C235.071 84.5809 234.535 84.4599 233.912 84.3042V78.8294C234.102 78.8294 234.301 78.8294 234.509 78.8294C234.716 78.8467 234.915 78.8554 235.106 78.8554C236.092 78.8554 236.896 78.7429 237.519 78.518C238.141 78.2932 238.643 77.9472 239.024 77.4802C239.404 77.0304 239.707 76.4423 239.932 75.7158L242.033 70.2929ZM238.92 45.384L245.017 65.7263L246.081 73.64L240.996 74.1849L230.902 45.384H238.92Z" fill="black"/>
</svg>
