<svg width="551" height="532" viewBox="0 0 551 532" fill="none" xmlns="http://www.w3.org/2000/svg">
<path d="M237.597 2.63531C108.539 19.992 3.10665 127.211 0.462649 277.823C2.26623 301.201 2.53018 343.888 30.1786 398.481C60.6005 458.809 112.266 505.817 175.19 530.429C183.25 533.574 189.507 530.876 192.377 523.262L252 368.042C256.125 357.196 253.977 352.453 243.321 347.623C209.221 332.137 191.14 298.037 196.966 261.41C203.686 220.16 241.258 191.148 282.904 195.187C328.64 199.14 361.485 241.026 354.421 286.401C349.935 315.688 333.211 336.09 306.347 348.276C297.479 352.281 295.176 357.918 298.561 366.976L357.91 521.131C361.846 531.598 367.483 533.918 377.779 529.724C497.197 480.843 569.625 357.488 545.993 225.712C521.105 86.7681 391.58 -17.9725 237.597 2.63531Z" fill="#9F3FFF"/>
</svg>
