<svg width="491" height="485" viewBox="0 0 491 485" fill="none" xmlns="http://www.w3.org/2000/svg">
<path d="M190.182 484.446C201.228 484.446 210.375 475.412 208.284 464.566C204.34 444.112 194.366 425.131 179.424 410.189C159.73 390.495 133.019 379.431 105.167 379.431C77.3157 379.431 50.6047 390.495 30.9106 410.189C15.9686 425.131 5.99439 444.112 2.05081 464.566C-0.0403379 475.412 9.10665 484.446 20.1523 484.446L190.182 484.446Z" fill="#9F3FFF"/>
<path d="M161.36 308.5C161.36 339.534 136.202 364.692 105.167 364.692C74.1332 364.692 48.9751 339.534 48.9751 308.5C48.9751 277.466 74.1332 252.308 105.167 252.308C136.202 252.308 161.36 277.466 161.36 308.5Z" fill="#9F3FFF"/>
<path d="M470.223 232.692C481.268 232.692 490.415 223.658 488.324 212.812C484.38 192.358 474.406 173.377 459.464 158.435C439.77 138.741 413.059 127.677 385.207 127.677C357.356 127.677 330.645 138.741 310.951 158.435C296.009 173.377 286.034 192.358 282.091 212.812C280 223.658 289.147 232.692 300.192 232.692L470.223 232.692Z" fill="#9F3FFF"/>
<path d="M441.4 56.746C441.4 87.7801 416.242 112.938 385.207 112.938C354.173 112.938 329.015 87.7801 329.015 56.746C329.015 25.7118 354.173 0.553711 385.207 0.553711C416.242 0.553711 441.4 25.7118 441.4 56.746Z" fill="#9F3FFF"/>
<path d="M228.606 83.579C228.606 78.1864 224.228 73.7747 218.852 74.2008C205.983 75.2209 193.332 78.2553 181.368 83.211C166.392 89.4144 152.784 98.5068 141.322 109.969C129.859 121.432 120.767 135.039 114.564 150.016C109.608 161.98 106.574 174.63 105.553 187.499C105.127 192.875 109.539 197.254 114.932 197.254C120.324 197.254 124.648 192.872 125.154 187.504C126.125 177.201 128.632 167.083 132.606 157.489C137.828 144.882 145.482 133.427 155.131 123.778C164.779 114.129 176.234 106.475 188.841 101.253C198.436 97.2789 208.554 94.7726 218.856 93.8017C224.225 93.2957 228.606 88.9716 228.606 83.579Z" fill="#9F3FFF"/>
<path d="M228.606 381.805C228.606 387.198 232.985 391.61 238.36 391.184C251.23 390.164 263.88 387.129 275.844 382.173C290.82 375.97 304.428 366.878 315.891 355.415C327.353 343.953 336.445 330.345 342.649 315.369C347.604 303.405 350.639 290.754 351.659 277.885C352.085 272.509 347.673 268.131 342.281 268.131C336.888 268.131 332.564 272.512 332.058 277.881C331.087 288.183 328.581 298.302 324.607 307.896C319.385 320.503 311.731 331.958 302.082 341.607C292.433 351.256 280.978 358.91 268.371 364.132C258.777 368.106 248.659 370.612 238.356 371.583C232.987 372.089 228.606 376.413 228.606 381.805Z" fill="#9F3FFF"/>
</svg>
