<svg width="420" height="897" viewBox="0 0 420 897" fill="none" xmlns="http://www.w3.org/2000/svg">
<g clip-path="url(#clip0_105_123)">
<rect x="15" y="15" width="390" height="867" rx="40" fill="white"/>
<rect x="31.7588" y="827.639" width="295.482" height="45" rx="10" fill="#E7E8F3"/>
<g filter="url(#filter0_d_105_123)">
<path d="M341.241 837.639C341.241 832.116 345.718 827.639 351.241 827.639H376.241C381.764 827.639 386.241 832.116 386.241 837.639V862.639C386.241 868.162 381.764 872.639 376.241 872.639H351.241C345.718 872.639 341.241 868.162 341.241 862.639V837.639Z" fill="#9F3FFF"/>
</g>
<path d="M375.212 848.613C376.584 849.159 376.584 851.119 375.212 851.665L355.474 859.517C353.922 860.135 352.564 858.276 353.609 856.964L358.224 851.166C358.702 850.566 358.702 849.712 358.224 849.112L353.609 843.314C352.564 842.002 353.922 840.144 355.474 840.761L375.212 848.613Z" fill="white"/>
<rect x="145" y="728.85" width="240" height="66" rx="10" fill="#E7E8F3"/>
<rect x="155" y="522.85" width="240" height="66" rx="10" fill="#E7E8F3"/>
<rect x="147" y="136.85" width="240" height="61" rx="10" fill="#E7E8F3"/>
<g filter="url(#filter1_d_105_123)">
<rect x="27" y="625.85" width="240" height="66" rx="10" fill="#9F3FFF"/>
</g>
<g filter="url(#filter2_d_105_123)">
<rect x="25" y="399.85" width="240" height="66" rx="10" fill="#9F3FFF"/>
</g>
<g filter="url(#filter3_d_105_123)">
<rect x="25" y="234.85" width="240" height="146" rx="10" fill="#9F3FFF"/>
</g>
<path d="M34.3965 71.4061C34.3965 65.8832 38.8736 61.4061 44.3965 61.4061H158.203C163.726 61.4061 168.203 65.8832 168.203 71.4061V96.4061C168.203 101.929 163.726 106.406 158.203 106.406H44.3965C38.8736 106.406 34.3965 101.929 34.3965 96.4061V71.4061Z" fill="#E5E6F2"/>
<path d="M73.2363 78.9626V90.3376H71.7207L65.9941 81.5641V90.3376H64.4863V78.9626H65.9941L71.7441 87.7595V78.9626H73.2363ZM79.1973 90.4938C78.6087 90.4938 78.0749 90.3949 77.5957 90.197C77.1217 89.9938 76.7129 89.71 76.3691 89.3454C76.0306 88.9808 75.7702 88.5485 75.5879 88.0485C75.4056 87.5485 75.3145 87.0016 75.3145 86.4079V86.0798C75.3145 85.3923 75.416 84.7803 75.6191 84.2438C75.8223 83.7022 76.0983 83.2438 76.4473 82.8688C76.7962 82.4938 77.1921 82.21 77.6348 82.0173C78.0775 81.8246 78.5358 81.7282 79.0098 81.7282C79.6139 81.7282 80.1348 81.8324 80.5723 82.0407C81.015 82.249 81.377 82.5407 81.6582 82.9157C81.9395 83.2855 82.1478 83.723 82.2832 84.2282C82.4186 84.7282 82.4863 85.2751 82.4863 85.8688V86.5173H76.1738V85.3376H81.041V85.2282C81.0202 84.8532 80.9421 84.4886 80.8066 84.1345C80.6764 83.7803 80.4681 83.4886 80.1816 83.2595C79.8952 83.0303 79.5046 82.9157 79.0098 82.9157C78.6816 82.9157 78.3796 82.986 78.1035 83.1266C77.8275 83.2621 77.5905 83.4652 77.3926 83.736C77.1947 84.0069 77.041 84.3376 76.9316 84.7282C76.8223 85.1188 76.7676 85.5694 76.7676 86.0798V86.4079C76.7676 86.8089 76.8223 87.1865 76.9316 87.5407C77.0462 87.8897 77.2103 88.197 77.4238 88.4626C77.6426 88.7282 77.9056 88.9365 78.2129 89.0876C78.5254 89.2386 78.8796 89.3141 79.2754 89.3141C79.7858 89.3141 80.2181 89.21 80.5723 89.0016C80.9264 88.7933 81.2363 88.5147 81.502 88.1657L82.377 88.861C82.1947 89.1371 81.9629 89.4001 81.6816 89.6501C81.4004 89.9001 81.054 90.1032 80.6426 90.2595C80.2363 90.4157 79.7546 90.4938 79.1973 90.4938ZM86.3145 88.8376L88.4863 81.8845H89.4395L89.252 83.2673L87.041 90.3376H86.1113L86.3145 88.8376ZM84.8535 81.8845L86.7051 88.9157L86.8379 90.3376H85.8613L83.4082 81.8845H84.8535ZM91.5176 88.861L93.2832 81.8845H94.7207L92.2676 90.3376H91.2988L91.5176 88.861ZM89.6504 81.8845L91.7754 88.7204L92.0176 90.3376H91.0957L88.8223 83.2516L88.6348 81.8845H89.6504ZM107.26 86.7204H108.76C108.682 87.4391 108.476 88.0824 108.143 88.6501C107.809 89.2178 107.338 89.6683 106.729 90.0016C106.119 90.3298 105.359 90.4938 104.447 90.4938C103.781 90.4938 103.174 90.3688 102.627 90.1188C102.085 89.8688 101.619 89.5147 101.229 89.0563C100.838 88.5928 100.536 88.0381 100.322 87.3923C100.114 86.7412 100.01 86.0173 100.01 85.2204V84.0876C100.01 83.2907 100.114 82.5694 100.322 81.9235C100.536 81.2725 100.84 80.7152 101.236 80.2516C101.637 79.7881 102.119 79.4313 102.682 79.1813C103.244 78.9313 103.877 78.8063 104.58 78.8063C105.439 78.8063 106.166 78.9678 106.76 79.2907C107.354 79.6136 107.814 80.0615 108.143 80.6345C108.476 81.2022 108.682 81.861 108.76 82.611H107.26C107.187 82.0798 107.051 81.624 106.854 81.2438C106.656 80.8584 106.374 80.5615 106.01 80.3532C105.645 80.1449 105.169 80.0407 104.58 80.0407C104.075 80.0407 103.63 80.1371 103.244 80.3298C102.864 80.5225 102.544 80.7959 102.283 81.1501C102.028 81.5043 101.835 81.9287 101.705 82.4235C101.575 82.9183 101.51 83.4678 101.51 84.072V85.2204C101.51 85.7777 101.567 86.3011 101.682 86.7907C101.801 87.2803 101.981 87.71 102.221 88.0798C102.46 88.4496 102.765 88.7412 103.135 88.9548C103.505 89.1631 103.942 89.2673 104.447 89.2673C105.088 89.2673 105.598 89.1657 105.979 88.9626C106.359 88.7595 106.645 88.4678 106.838 88.0876C107.036 87.7074 107.176 87.2516 107.26 86.7204ZM112.041 78.3376V90.3376H110.596V78.3376H112.041ZM111.697 85.7907L111.096 85.7673C111.101 85.1891 111.187 84.6553 111.354 84.1657C111.52 83.6709 111.755 83.2412 112.057 82.8766C112.359 82.5121 112.718 82.2308 113.135 82.0329C113.557 81.8298 114.023 81.7282 114.533 81.7282C114.95 81.7282 115.325 81.7855 115.658 81.9001C115.992 82.0095 116.275 82.1865 116.51 82.4313C116.749 82.6761 116.932 82.9938 117.057 83.3845C117.182 83.7699 117.244 84.2412 117.244 84.7985V90.3376H115.791V84.7829C115.791 84.3402 115.726 83.986 115.596 83.7204C115.465 83.4496 115.275 83.2543 115.025 83.1345C114.775 83.0095 114.468 82.947 114.104 82.947C113.744 82.947 113.416 83.0225 113.119 83.1735C112.827 83.3246 112.575 83.5329 112.361 83.7985C112.153 84.0641 111.989 84.3688 111.869 84.7126C111.755 85.0511 111.697 85.4105 111.697 85.7907ZM124.393 88.8923V84.5407C124.393 84.2074 124.325 83.9183 124.189 83.6735C124.059 83.4235 123.861 83.2308 123.596 83.0954C123.33 82.96 123.002 82.8923 122.611 82.8923C122.247 82.8923 121.926 82.9548 121.65 83.0798C121.38 83.2048 121.166 83.3688 121.01 83.572C120.859 83.7751 120.783 83.9938 120.783 84.2282H119.338C119.338 83.9261 119.416 83.6266 119.572 83.3298C119.729 83.0329 119.952 82.7647 120.244 82.5251C120.541 82.2803 120.895 82.0876 121.307 81.947C121.723 81.8011 122.187 81.7282 122.697 81.7282C123.312 81.7282 123.854 81.8324 124.322 82.0407C124.796 82.249 125.166 82.5641 125.432 82.986C125.702 83.4027 125.838 83.9261 125.838 84.5563V88.4938C125.838 88.7751 125.861 89.0746 125.908 89.3923C125.96 89.71 126.036 89.9834 126.135 90.2126V90.3376H124.627C124.554 90.1709 124.497 89.9496 124.455 89.6735C124.413 89.3923 124.393 89.1319 124.393 88.8923ZM124.643 85.2126L124.658 86.2282H123.197C122.786 86.2282 122.419 86.2621 122.096 86.3298C121.773 86.3923 121.502 86.4886 121.283 86.6188C121.064 86.749 120.898 86.9131 120.783 87.111C120.669 87.3037 120.611 87.5303 120.611 87.7907C120.611 88.0563 120.671 88.2985 120.791 88.5173C120.911 88.736 121.09 88.9105 121.33 89.0407C121.575 89.1657 121.874 89.2282 122.229 89.2282C122.671 89.2282 123.062 89.1345 123.4 88.947C123.739 88.7595 124.007 88.5303 124.205 88.2595C124.408 87.9886 124.518 87.7256 124.533 87.4704L125.15 88.1657C125.114 88.3845 125.015 88.6266 124.854 88.8923C124.692 89.1579 124.476 89.4131 124.205 89.6579C123.939 89.8975 123.622 90.098 123.252 90.2595C122.887 90.4157 122.476 90.4938 122.018 90.4938C121.445 90.4938 120.942 90.3819 120.51 90.1579C120.083 89.9339 119.749 89.6345 119.51 89.2595C119.275 88.8793 119.158 88.4548 119.158 87.986C119.158 87.5329 119.247 87.1345 119.424 86.7907C119.601 86.4418 119.856 86.1527 120.189 85.9235C120.523 85.6891 120.924 85.5121 121.393 85.3923C121.861 85.2725 122.385 85.2126 122.963 85.2126H124.643ZM131.65 81.8845V82.9938H127.08V81.8845H131.65ZM128.627 79.8298H130.072V88.2438C130.072 88.5303 130.117 88.7464 130.205 88.8923C130.294 89.0381 130.408 89.1345 130.549 89.1813C130.689 89.2282 130.84 89.2516 131.002 89.2516C131.122 89.2516 131.247 89.2412 131.377 89.2204C131.512 89.1944 131.614 89.1735 131.682 89.1579L131.689 90.3376C131.575 90.374 131.424 90.4079 131.236 90.4391C131.054 90.4756 130.833 90.4938 130.572 90.4938C130.218 90.4938 129.893 90.4235 129.596 90.2829C129.299 90.1423 129.062 89.9079 128.885 89.5798C128.713 89.2464 128.627 88.7985 128.627 88.236V79.8298Z" fill="black"/>
<path d="M182.167 71.4061C182.167 65.8832 186.644 61.4061 192.167 61.4061H305.974C311.497 61.4061 315.974 65.8832 315.974 71.4061V96.4061C315.974 101.929 311.497 106.406 305.974 106.406H192.167C186.644 106.406 182.167 101.929 182.167 96.4061V71.4061Z" fill="#E4E5F2"/>
<path d="M231.742 78.9626V90.3376H230.234V78.9626H231.742ZM235.71 83.6891V90.3376H234.265V81.8845H235.632L235.71 83.6891ZM235.367 85.7907L234.765 85.7673C234.77 85.1891 234.856 84.6553 235.023 84.1657C235.19 83.6709 235.424 83.2412 235.726 82.8766C236.028 82.5121 236.388 82.2308 236.804 82.0329C237.226 81.8298 237.692 81.7282 238.203 81.7282C238.619 81.7282 238.994 81.7855 239.328 81.9001C239.661 82.0095 239.945 82.1865 240.179 82.4313C240.419 82.6761 240.601 82.9938 240.726 83.3845C240.851 83.7699 240.914 84.2412 240.914 84.7985V90.3376H239.46V84.7829C239.46 84.3402 239.395 83.986 239.265 83.7204C239.135 83.4496 238.945 83.2543 238.695 83.1345C238.445 83.0095 238.138 82.947 237.773 82.947C237.414 82.947 237.085 83.0225 236.789 83.1735C236.497 83.3246 236.244 83.5329 236.031 83.7985C235.822 84.0641 235.658 84.3688 235.539 84.7126C235.424 85.0511 235.367 85.4105 235.367 85.7907ZM245.679 89.0329L247.992 81.8845H249.468L246.429 90.3376H245.46L245.679 89.0329ZM243.75 81.8845L246.132 89.072L246.296 90.3376H245.328L242.265 81.8845H243.75ZM252.429 81.8845V90.3376H250.976V81.8845H252.429ZM250.867 79.6423C250.867 79.4079 250.937 79.21 251.078 79.0485C251.223 78.8871 251.437 78.8063 251.718 78.8063C251.994 78.8063 252.205 78.8871 252.351 79.0485C252.502 79.21 252.578 79.4079 252.578 79.6423C252.578 79.8662 252.502 80.0589 252.351 80.2204C252.205 80.3766 251.994 80.4548 251.718 80.4548C251.437 80.4548 251.223 80.3766 251.078 80.2204C250.937 80.0589 250.867 79.8662 250.867 79.6423ZM258.289 81.8845V82.9938H253.718V81.8845H258.289ZM255.265 79.8298H256.71V88.2438C256.71 88.5303 256.755 88.7464 256.843 88.8923C256.932 89.0381 257.046 89.1345 257.187 89.1813C257.328 89.2282 257.479 89.2516 257.64 89.2516C257.76 89.2516 257.885 89.2412 258.015 89.2204C258.151 89.1944 258.252 89.1735 258.32 89.1579L258.328 90.3376C258.213 90.374 258.062 90.4079 257.875 90.4391C257.692 90.4756 257.471 90.4938 257.21 90.4938C256.856 90.4938 256.531 90.4235 256.234 90.2829C255.937 90.1423 255.7 89.9079 255.523 89.5798C255.351 89.2464 255.265 88.7985 255.265 88.236V79.8298ZM263.492 90.4938C262.903 90.4938 262.369 90.3949 261.89 90.197C261.416 89.9938 261.007 89.71 260.664 89.3454C260.325 88.9808 260.065 88.5485 259.882 88.0485C259.7 87.5485 259.609 87.0016 259.609 86.4079V86.0798C259.609 85.3923 259.71 84.7803 259.914 84.2438C260.117 83.7022 260.393 83.2438 260.742 82.8688C261.091 82.4938 261.486 82.21 261.929 82.0173C262.372 81.8246 262.83 81.7282 263.304 81.7282C263.908 81.7282 264.429 81.8324 264.867 82.0407C265.309 82.249 265.671 82.5407 265.953 82.9157C266.234 83.2855 266.442 83.723 266.578 84.2282C266.713 84.7282 266.781 85.2751 266.781 85.8688V86.5173H260.468V85.3376H265.335V85.2282C265.315 84.8532 265.236 84.4886 265.101 84.1345C264.971 83.7803 264.763 83.4886 264.476 83.2595C264.19 83.0303 263.799 82.9157 263.304 82.9157C262.976 82.9157 262.674 82.986 262.398 83.1266C262.122 83.2621 261.885 83.4652 261.687 83.736C261.489 84.0069 261.335 84.3376 261.226 84.7282C261.117 85.1188 261.062 85.5694 261.062 86.0798V86.4079C261.062 86.8089 261.117 87.1865 261.226 87.5407C261.341 87.8897 261.505 88.197 261.718 88.4626C261.937 88.7282 262.2 88.9365 262.507 89.0876C262.82 89.2386 263.174 89.3141 263.57 89.3141C264.08 89.3141 264.513 89.21 264.867 89.0016C265.221 88.7933 265.531 88.5147 265.796 88.1657L266.671 88.861C266.489 89.1371 266.257 89.4001 265.976 89.6501C265.695 89.9001 265.348 90.1032 264.937 90.2595C264.531 90.4157 264.049 90.4938 263.492 90.4938Z" fill="black"/>
<path d="M335.644 71.4061C335.644 65.8832 340.121 61.4061 345.644 61.4061H370.644C376.166 61.4061 380.644 65.8832 380.644 71.4061V96.4061C380.644 101.929 376.166 106.406 370.644 106.406H345.644C340.121 106.406 335.644 101.929 335.644 96.4061V71.4061Z" fill="#E7E8F3"/>
<path d="M347.649 80.2655C348.454 80.1097 349.073 79.5011 349.427 78.8889C349.793 78.2565 349.943 77.4392 349.683 76.6268C349.485 76.0126 349.586 75.3153 350.067 74.8848C351.261 73.8143 352.67 72.9777 354.22 72.4469C354.887 72.2185 355.597 72.5436 356.023 73.1054C356.548 73.7995 357.311 74.1179 358.02 74.1187C358.765 74.1195 359.645 73.7193 360.234 73.003C360.658 72.4872 361.334 72.2025 361.967 72.4132C363.531 72.9332 364.953 73.7635 366.16 74.8309C366.666 75.2785 366.754 76.0164 366.518 76.6494C366.214 77.4633 366.284 78.2655 366.643 78.8889C367.005 79.5169 367.756 80.119 368.618 80.2654C369.282 80.3781 369.874 80.8226 370.008 81.4826C370.167 82.2649 370.25 83.0747 370.25 83.9039C370.25 84.7616 370.161 85.5985 369.992 86.4059C369.863 87.0179 369.336 87.4478 368.732 87.6073C367.963 87.8099 367.277 88.3533 366.918 88.9759C366.561 89.5944 366.432 90.4432 366.643 91.2009C366.812 91.8081 366.707 92.4856 366.238 92.9072C365.01 94.0115 363.556 94.8684 361.953 95.3994C361.339 95.6025 360.683 95.3418 360.254 94.8588C359.656 94.1865 358.764 93.9954 358.02 93.9946C357.317 93.9938 356.574 94.0899 356.057 94.7391C355.624 95.2827 354.925 95.599 354.266 95.3767C352.817 94.8869 351.49 94.1299 350.344 93.1644C349.728 92.6445 349.72 91.7262 350.099 91.014C350.503 90.2536 350.077 89.3735 349.683 88.5784C349.251 87.708 348.883 87.3639 347.953 87.3318C347.151 87.3041 346.367 86.8392 346.226 86.0498C346.102 85.3533 346.037 84.6362 346.037 83.9039C346.037 83.0773 346.119 82.27 346.277 81.49C346.41 80.8355 346.994 80.3926 347.649 80.2655Z" stroke="black" stroke-width="1.2"/>
<path d="M364.107 83.9038C364.107 87.1973 361.437 89.8672 358.144 89.8672C354.85 89.8672 352.18 87.1973 352.18 83.9038C352.18 80.6104 354.85 77.9405 358.144 77.9405C361.437 77.9405 364.107 80.6104 364.107 83.9038Z" stroke="black" stroke-width="1.2"/>
<path d="M140.3 6.20361H279.7V34.2997C279.7 42.5839 272.984 49.2997 264.7 49.2997H155.3C147.016 49.2997 140.3 42.5839 140.3 34.2997V6.20361Z" fill="black"/>
</g>
<rect x="7.5" y="7.5" width="405" height="882" rx="47.5" stroke="black" stroke-width="15"/>
<defs>
<filter id="filter0_d_105_123" x="329.241" y="815.639" width="85" height="85" filterUnits="userSpaceOnUse" color-interpolation-filters="sRGB">
<feFlood flood-opacity="0" result="BackgroundImageFix"/>
<feColorMatrix in="SourceAlpha" type="matrix" values="0 0 0 0 0 0 0 0 0 0 0 0 0 0 0 0 0 0 127 0" result="hardAlpha"/>
<feOffset dx="8" dy="8"/>
<feGaussianBlur stdDeviation="10"/>
<feComposite in2="hardAlpha" operator="out"/>
<feColorMatrix type="matrix" values="0 0 0 0 0 0 0 0 0 0.1375 0 0 0 0 0.625 0 0 0 0.25 0"/>
<feBlend mode="normal" in2="BackgroundImageFix" result="effect1_dropShadow_105_123"/>
<feBlend mode="normal" in="SourceGraphic" in2="effect1_dropShadow_105_123" result="shape"/>
</filter>
<filter id="filter1_d_105_123" x="-51" y="547.85" width="380" height="206" filterUnits="userSpaceOnUse" color-interpolation-filters="sRGB">
<feFlood flood-opacity="0" result="BackgroundImageFix"/>
<feColorMatrix in="SourceAlpha" type="matrix" values="0 0 0 0 0 0 0 0 0 0 0 0 0 0 0 0 0 0 127 0" result="hardAlpha"/>
<feOffset dx="-8" dy="-8"/>
<feGaussianBlur stdDeviation="35"/>
<feComposite in2="hardAlpha" operator="out"/>
<feColorMatrix type="matrix" values="0 0 0 0 0 0 0 0 0 0.1375 0 0 0 0 0.625 0 0 0 0.25 0"/>
<feBlend mode="normal" in2="BackgroundImageFix" result="effect1_dropShadow_105_123"/>
<feBlend mode="normal" in="SourceGraphic" in2="effect1_dropShadow_105_123" result="shape"/>
</filter>
<filter id="filter2_d_105_123" x="-53" y="321.85" width="380" height="206" filterUnits="userSpaceOnUse" color-interpolation-filters="sRGB">
<feFlood flood-opacity="0" result="BackgroundImageFix"/>
<feColorMatrix in="SourceAlpha" type="matrix" values="0 0 0 0 0 0 0 0 0 0 0 0 0 0 0 0 0 0 127 0" result="hardAlpha"/>
<feOffset dx="-8" dy="-8"/>
<feGaussianBlur stdDeviation="35"/>
<feComposite in2="hardAlpha" operator="out"/>
<feColorMatrix type="matrix" values="0 0 0 0 0 0 0 0 0 0.1375 0 0 0 0 0.625 0 0 0 0.25 0"/>
<feBlend mode="normal" in2="BackgroundImageFix" result="effect1_dropShadow_105_123"/>
<feBlend mode="normal" in="SourceGraphic" in2="effect1_dropShadow_105_123" result="shape"/>
</filter>
<filter id="filter3_d_105_123" x="-53" y="156.85" width="380" height="286" filterUnits="userSpaceOnUse" color-interpolation-filters="sRGB">
<feFlood flood-opacity="0" result="BackgroundImageFix"/>
<feColorMatrix in="SourceAlpha" type="matrix" values="0 0 0 0 0 0 0 0 0 0 0 0 0 0 0 0 0 0 127 0" result="hardAlpha"/>
<feOffset dx="-8" dy="-8"/>
<feGaussianBlur stdDeviation="35"/>
<feComposite in2="hardAlpha" operator="out"/>
<feColorMatrix type="matrix" values="0 0 0 0 0 0 0 0 0 0.1375 0 0 0 0 0.625 0 0 0 0.25 0"/>
<feBlend mode="normal" in2="BackgroundImageFix" result="effect1_dropShadow_105_123"/>
<feBlend mode="normal" in="SourceGraphic" in2="effect1_dropShadow_105_123" result="shape"/>
</filter>
<clipPath id="clip0_105_123">
<rect x="15" y="15" width="390" height="867" rx="40" fill="white"/>
</clipPath>
</defs>
</svg>
