<svg width="1440" height="303" viewBox="0 0 1440 303" fill="none" xmlns="http://www.w3.org/2000/svg">
<path d="M0 0.600037L34.4 5.08002C68.8 9.72002 137.6 18.68 206.08 22.2C274.72 25.72 342.88 23.48 411.52 18.68C480 13.88 548.8 6.52004 617.28 4.60004C685.92 2.68004 754.08 6.52006 822.72 20.1201C891.2 33.7201 960 57.08 1028.48 60.92C1097.12 64.6 1165.28 48.6 1233.92 42.68C1302.4 36.92 1371.2 41.0801 1405.6 43.3201L1440 45.4V303H1405.6C1371.2 303 1302.4 303 1233.92 303C1165.28 303 1097.12 303 1028.48 303C960 303 891.2 303 822.72 303C754.08 303 685.92 303 617.28 303C548.8 303 480 303 411.52 303C342.88 303 274.72 303 206.08 303C137.6 303 68.8 303 34.4 303H0V0.600037Z" fill="#1F284F"/>
<path d="M0 63L34.4 57.08C68.8 51.32 137.6 39.48 206.08 42.2C274.72 44.92 342.88 61.88 411.52 62.68C480 63.48 548.8 48.12 617.28 51.8C685.92 55.48 754.08 78.52 822.72 78.2C891.2 77.88 960 54.52 1028.48 50.2C1097.12 45.88 1165.28 60.92 1233.92 60.28C1302.4 59.8 1371.2 43.8 1405.6 35.8L1440 27.8V303H1405.6C1371.2 303 1302.4 303 1233.92 303C1165.28 303 1097.12 303 1028.48 303C960 303 891.2 303 822.72 303C754.08 303 685.92 303 617.28 303C548.8 303 480 303 411.52 303C342.88 303 274.72 303 206.08 303C137.6 303 68.8 303 34.4 303H0V63Z" fill="#2E356A"/>
<path d="M0 127L34.4 123.48C68.8 120.12 137.6 113.08 206.08 112.12C274.72 111 342.88 115.8 411.52 122.68C480 129.72 548.8 138.68 617.28 144.28C685.92 149.88 754.08 152.12 822.72 149.08C891.2 146.2 960 138.2 1028.48 136.6C1097.12 135 1165.28 139.8 1233.92 146.68C1302.4 153.72 1371.2 162.68 1405.6 167.32L1440 171.8V303H1405.6C1371.2 303 1302.4 303 1233.92 303C1165.28 303 1097.12 303 1028.48 303C960 303 891.2 303 822.72 303C754.08 303 685.92 303 617.28 303C548.8 303 480 303 411.52 303C342.88 303 274.72 303 206.08 303C137.6 303 68.8 303 34.4 303H0V127Z" fill="#3F4285"/>
<path d="M0 218.2L34.4 217.4C68.8 216.6 137.6 215 206.08 213.88C274.72 212.92 342.88 212.28 411.52 210.68C480 209.08 548.8 206.52 617.28 196.28C685.92 186.2 754.08 168.6 822.72 160.28C891.2 152.12 960 153.08 1028.48 159.32C1097.12 165.4 1165.28 176.6 1233.92 185.72C1302.4 194.68 1371.2 201.72 1405.6 205.08L1440 208.6V303H1405.6C1371.2 303 1302.4 303 1233.92 303C1165.28 303 1097.12 303 1028.48 303C960 303 891.2 303 822.72 303C754.08 303 685.92 303 617.28 303C548.8 303 480 303 411.52 303C342.88 303 274.72 303 206.08 303C137.6 303 68.8 303 34.4 303H0V218.2Z" fill="#534FA0"/>
<path d="M0 208.6L34.4 213.4C68.8 218.2 137.6 227.8 206.08 229.88C274.72 232.12 342.88 226.68 411.52 227C480 227.32 548.8 233.08 617.28 239.48C685.92 245.88 754.08 252.92 822.72 256.12C891.2 259.32 960 258.68 1028.48 249.72C1097.12 240.6 1165.28 223 1233.92 220.6C1302.4 218.2 1371.2 231 1405.6 237.4L1440 243.8V303H1405.6C1371.2 303 1302.4 303 1233.92 303C1165.28 303 1097.12 303 1028.48 303C960 303 891.2 303 822.72 303C754.08 303 685.92 303 617.28 303C548.8 303 480 303 411.52 303C342.88 303 274.72 303 206.08 303C137.6 303 68.8 303 34.4 303H0V208.6Z" fill="#695CBC"/>
</svg>
